<svg id="visual" viewBox="0 0 960 540" width="960" height="540" xmlns="http://www.w3.org/2000/svg" xmlns:xlink="http://www.w3.org/1999/xlink" version="1.1"><path d="M0 77L32 89.5C64 102 128 127 192 157.5C256 188 320 224 384 238.5C448 253 512 246 576 219C640 192 704 145 768 135C832 125 896 152 928 165.5L960 179L960 0L928 0C896 0 832 0 768 0C704 0 640 0 576 0C512 0 448 0 384 0C320 0 256 0 192 0C128 0 64 0 32 0L0 0Z" fill="#bfe1f9"></path><path d="M0 217L32 217.8C64 218.7 128 220.3 192 239.2C256 258 320 294 384 310.3C448 326.7 512 323.3 576 298.2C640 273 704 226 768 211.5C832 197 896 215 928 224L960 233L960 177L928 163.5C896 150 832 123 768 133C704 143 640 190 576 217C512 244 448 251 384 236.5C320 222 256 186 192 155.5C128 125 64 100 32 87.5L0 75Z" fill="#b0daf8"></path><path d="M0 249L32 257.2C64 265.3 128 281.7 192 300.7C256 319.7 320 341.3 384 359.3C448 377.3 512 391.7 576 367.3C640 343 704 280 768 262.8C832 245.7 896 274.3 928 288.7L960 303L960 231L928 222C896 213 832 195 768 209.5C704 224 640 271 576 296.2C512 321.3 448 324.7 384 308.3C320 292 256 256 192 237.2C128 218.3 64 216.7 32 215.8L0 215Z" fill="#a1d3f7"></path><path d="M0 433L32 435.7C64 438.3 128 443.7 192 450.8C256 458 320 467 384 473.3C448 479.7 512 483.3 576 485.2C640 487 704 487 768 485.2C832 483.3 896 479.7 928 477.8L960 476L960 301L928 286.7C896 272.3 832 243.7 768 260.8C704 278 640 341 576 365.3C512 389.7 448 375.3 384 357.3C320 339.3 256 317.7 192 298.7C128 279.7 64 263.3 32 255.2L0 247Z" fill="#8bc3ed"></path><path d="M0 541L32 541C64 541 128 541 192 541C256 541 320 541 384 541C448 541 512 541 576 541C640 541 704 541 768 541C832 541 896 541 928 541L960 541L960 474L928 475.8C896 477.7 832 481.3 768 483.2C704 485 640 485 576 483.2C512 481.3 448 477.7 384 471.3C320 465 256 456 192 448.8C128 441.7 64 436.3 32 433.7L0 431Z" fill="#76b3e3"></path></svg>