<svg width="1917" height="1282" viewBox="0 0 1917 1282" fill="none" xmlns="http://www.w3.org/2000/svg">
<g clip-path="url(#clip0_16_324)">
<path d="M0 182.804L63.9 212.48C127.8 242.156 255.6 301.507 383.4 373.917C511.2 446.326 639 531.793 766.8 566.217C894.6 600.641 1022.4 584.022 1150.2 519.922C1278 455.822 1405.8 344.241 1533.6 320.5C1661.4 296.759 1789.2 360.859 1853.1 392.909L1917 424.959V0H1853.1C1789.2 0 1661.4 0 1533.6 0C1405.8 0 1278 0 1150.2 0C1022.4 0 894.6 0 766.8 0C639 0 511.2 0 383.4 0C255.6 0 127.8 0 63.9 0H0V182.804Z" fill="#F5FBFF"/>
<path d="M0 515.174L63.9 517.073C127.8 519.21 255.6 523.008 383.4 567.878C511.2 612.511 639 697.978 766.8 736.675C894.6 775.61 1022.4 767.538 1150.2 707.949C1278 648.122 1405.8 536.541 1533.6 502.117C1661.4 467.693 1789.2 510.426 1853.1 531.793L1917 553.159V420.211L1853.1 388.161C1789.2 356.111 1661.4 292.011 1533.6 315.752C1405.8 339.493 1278 451.074 1150.2 515.174C1022.4 579.274 894.6 595.893 766.8 561.468C639 527.044 511.2 441.578 383.4 369.168C255.6 296.759 127.8 237.407 63.9 207.731L0 178.056V515.174Z" fill="#B0DAF8"/>
<path d="M0 591.144L63.9 610.612C127.8 629.842 255.6 668.777 383.4 713.884C511.2 758.992 639 810.271 766.8 853.005C894.6 895.738 1022.4 929.925 1150.2 871.997C1278 814.307 1405.8 664.741 1533.6 623.907C1661.4 583.31 1789.2 651.209 1853.1 685.395L1917 719.344V548.411L1853.1 527.044C1789.2 505.678 1661.4 462.944 1533.6 497.369C1405.8 531.793 1278 643.374 1150.2 703.201C1022.4 762.79 894.6 770.862 766.8 731.927C639 693.23 511.2 607.763 383.4 563.13C255.6 518.26 127.8 514.462 63.9 512.325L0 510.426V591.144Z" fill="#A1D3F7"/>
<path d="M0 1027.97L63.9 1034.38C127.8 1040.56 255.6 1053.38 383.4 1070.23C511.2 1087.33 639 1108.69 766.8 1123.65C894.6 1138.84 1022.4 1147.39 1150.2 1151.9C1278 1156.17 1405.8 1156.17 1533.6 1151.9C1661.4 1147.39 1789.2 1138.84 1853.1 1134.33L1917 1130.06V714.596L1853.1 680.647C1789.2 646.46 1661.4 578.562 1533.6 619.158C1405.8 659.993 1278 809.559 1150.2 867.249C1022.4 925.177 894.6 890.99 766.8 848.257C639 805.523 511.2 754.243 383.4 709.136C255.6 664.029 127.8 625.094 63.9 605.864L0 586.396V1027.97Z" fill="#8BC3ED"/>
<path d="M0 1284.37H63.9C127.8 1284.37 255.6 1284.37 383.4 1284.37C511.2 1284.37 639 1284.37 766.8 1284.37C894.6 1284.37 1022.4 1284.37 1150.2 1284.37C1278 1284.37 1405.8 1284.37 1533.6 1284.37C1661.4 1284.37 1789.2 1284.37 1853.1 1284.37H1917V1125.31L1853.1 1129.58C1789.2 1134.1 1661.4 1142.64 1533.6 1147.15C1405.8 1151.43 1278 1151.43 1150.2 1147.15C1022.4 1142.64 894.6 1134.1 766.8 1118.9C639 1103.94 511.2 1082.58 383.4 1065.48C255.6 1048.63 127.8 1035.81 63.9 1029.64L0 1023.23V1284.37Z" fill="#76B3E3"/>
</g>
<defs>
<clipPath id="clip0_16_324">
<rect width="1917" height="1282" fill="white"/>
</clipPath>
</defs>
</svg>
